<svg t="1652866644413" class="icon" viewBox="0 0 1024 1024" version="1.1" xmlns="http://www.w3.org/2000/svg" p-id="1504"
     width="200" height="200">
    <path d="M800.6144 930.7648H230.0416c-73.5232 0-133.12-59.5968-133.12-133.12V226.304c0-73.5232 59.5968-133.12 133.12-133.12h570.5728c73.5232 0 133.12 59.5968 133.12 133.12v571.2896c0 73.5232-59.5968 133.1712-133.12 133.1712z"
          fill="#FFAC3E" p-id="1505"></path>
    <path d="M933.7344 451.1232l-352 218.4192a46.45376 46.45376 0 0 1-57.2928-6.5536l-114.5344-114.0736a46.49984 46.49984 0 0 0-65.1264-0.4608l-247.8592 240.0768v12.8c0 71.4752 57.9072 129.3824 129.3824 129.3824h578.048c71.4752 0 129.3824-57.9072 129.3824-129.3824v-350.208z"
          fill="#FF7C0E" p-id="1506"></path>
    <path d="M337.3056 335.7184m-68.864 0a68.864 68.864 0 1 0 137.728 0 68.864 68.864 0 1 0-137.728 0Z" fill="#FFFFFF"
          p-id="1507"></path>
</svg>